<svg xmlns="http://www.w3.org/2000/svg"  viewBox="0 0 72 72" width="128px" height="128px"><path d="M 43.818359 7.8652344 L 40.195312 10.560547 L 53.671875 28.679688 L 57.294922 25.984375 L 43.818359 7.8652344 z M 35.509766 15.076172 L 32.619141 18.546875 L 49.970703 32.996094 L 52.859375 29.525391 L 35.509766 15.076172 z M 28.861328 24.494141 L 26.955078 28.587891 L 47.421875 38.119141 L 49.328125 34.027344 L 28.861328 24.494141 z M 24.960938 34.748047 L 24.03125 39.167969 L 46.126953 43.8125 L 47.054688 39.394531 L 24.960938 34.748047 z M 14.630859 40.505859 L 14.630859 58.5 L 55.119141 58.5 L 55.119141 40.505859 L 50.619141 40.505859 L 50.619141 54.001953 L 19.128906 54.001953 L 19.128906 40.505859 L 14.630859 40.505859 z M 23.626953 45.003906 L 23.626953 49.503906 L 46.119141 49.503906 L 46.119141 45.003906 L 23.626953 45.003906 z"/></svg>